<!DOCTYPE svg PUBLIC "-//W3C//DTD SVG 1.1//EN" "http://www.w3.org/Graphics/SVG/1.1/DTD/svg11.dtd">
<svg version="1.1" id="Ebene_1" xmlns="http://www.w3.org/2000/svg" xmlns:xlink="http://www.w3.org/1999/xlink" x="0px" y="0px" width="283.339px" height="383.568px" viewBox="0 0 283.339 383.568" enable-background="new 0 0 283.339 383.568" xml:space="preserve">
<g>
	<path fill-rule="evenodd" clip-rule="evenodd" fill="#FFCC00" d="M91.742,381.119h76.286v-19.083H117.21v-18.57h47.058v-19.083   H117.21v-17.279h49.726v-19.083H91.742V381.119L91.742,381.119z M0,381.119h25.471v-34.816h42.935V327.22H25.471v-19.341h45.481   v-19.858H0V381.119L0,381.119z M-0.137,89.813h283.482v27.444H-0.137V89.813L-0.137,89.813z M-0.144,0h283.482v38.707H-0.144V0   L-0.144,0z M-0.143,47.008h283.483v31.685H-0.143V47.008L-0.143,47.008z M-0.144,252.658h283.482v7.771H-0.144V252.658   L-0.144,252.658z M-0.144,226.254h283.482v10.527H-0.144V226.254L-0.144,226.254z M-0.144,197.455h283.482v14.309H-0.144V197.455   L-0.144,197.455z M-0.144,165.012h283.482v18.96H-0.144V165.012L-0.144,165.012z M-0.144,129.189h283.482v23.202H-0.144V129.189   L-0.144,129.189z M236.569,347.206h23.166v15.988c-5.094,1.161-12.008,2.322-18.072,2.322c-20.375,0-31.049-11.09-31.049-31.592   c0-16.763,7.398-30.302,27.775-30.302c10.795,0,19.283,3.738,19.648,13.927h26.197c-0.85-24.758-24.016-31.979-45.969-31.979   c-32.26,0-53.85,15.345-53.85,50.804c0,34.558,24.137,47.193,55.67,47.193c14.432,0,28.744-2.063,42.934-4.384v-49.257h-46.451   V347.206L236.569,347.206z"/>
</g>
</svg>